<svg width="19" height="19" viewBox="0 0 19 19" fill="none" xmlns="http://www.w3.org/2000/svg">
<path d="M9.49996 5.14583C12.5004 5.14583 15.1762 6.83208 16.4825 9.5C15.1762 12.1679 12.5083 13.8542 9.49996 13.8542C6.49163 13.8542 3.82371 12.1679 2.51746 9.5C3.82371 6.83208 6.49954 5.14583 9.49996 5.14583ZM9.49996 3.5625C5.54163 3.5625 2.16121 6.02458 0.791626 9.5C2.16121 12.9754 5.54163 15.4375 9.49996 15.4375C13.4583 15.4375 16.8387 12.9754 18.2083 9.5C16.8387 6.02458 13.4583 3.5625 9.49996 3.5625ZM9.49996 7.52083C10.5925 7.52083 11.4791 8.4075 11.4791 9.5C11.4791 10.5925 10.5925 11.4792 9.49996 11.4792C8.40746 11.4792 7.52079 10.5925 7.52079 9.5C7.52079 8.4075 8.40746 7.52083 9.49996 7.52083ZM9.49996 5.9375C7.53663 5.9375 5.93746 7.53667 5.93746 9.5C5.93746 11.4633 7.53663 13.0625 9.49996 13.0625C11.4633 13.0625 13.0625 11.4633 13.0625 9.5C13.0625 7.53667 11.4633 5.9375 9.49996 5.9375Z" fill="#7360D6"/>
</svg>
