<svg width="19" height="19" viewBox="0 0 19 19" fill="none" xmlns="http://www.w3.org/2000/svg">
<path d="M9.49996 4.73022C12.5004 4.73022 15.1762 6.41647 16.4825 9.08438C16.0154 10.0502 15.3583 10.8815 14.5745 11.5544L15.6908 12.6706C16.7912 11.6969 17.662 10.4777 18.2083 9.08438C16.8387 5.60897 13.4583 3.14688 9.49996 3.14688C8.49454 3.14688 7.52871 3.30522 6.61829 3.59813L7.92454 4.90438C8.43913 4.80147 8.96163 4.73022 9.49996 4.73022ZM8.65288 5.63272L10.2916 7.27147C10.7429 7.46938 11.107 7.83355 11.305 8.2848L12.9437 9.92355C13.007 9.65438 13.0545 9.36938 13.0545 9.07647C13.0625 7.11313 11.4633 5.52188 9.49996 5.52188C9.20704 5.52188 8.92996 5.56147 8.65288 5.63272ZM1.59121 3.04397L3.71288 5.16563C2.42246 6.17897 1.40121 7.5248 0.791626 9.08438C2.16121 12.5598 5.54163 15.0219 9.49996 15.0219C10.7033 15.0219 11.8591 14.7923 12.92 14.3727L15.6275 17.0802L16.7437 15.964L2.70746 1.9198L1.59121 3.04397ZM7.52871 8.98147L9.59496 11.0477C9.56329 11.0556 9.53163 11.0635 9.49996 11.0635C8.40746 11.0635 7.52079 10.1769 7.52079 9.08438C7.52079 9.0448 7.52871 9.02105 7.52871 8.98147ZM4.83704 6.2898L6.22246 7.67522C6.04038 8.11063 5.93746 8.58563 5.93746 9.08438C5.93746 11.0477 7.53663 12.6469 9.49996 12.6469C9.99871 12.6469 10.4737 12.544 10.9012 12.3619L11.677 13.1377C10.9804 13.3277 10.252 13.4385 9.49996 13.4385C6.49954 13.4385 3.82371 11.7523 2.51746 9.08438C3.07163 7.9523 3.87913 7.01813 4.83704 6.2898Z" fill="#7360D6"/>
</svg>
