<svg width="310" height="130" viewBox="0 0 310 130" fill="none" xmlns="http://www.w3.org/2000/svg">
<path d="M168.736 48.6177C165.102 48.6177 161.808 47.8299 158.854 46.2544C155.917 44.661 153.59 42.3335 151.871 39.272C150.152 36.1925 149.293 32.4417 149.293 28.0195C149.293 23.5615 150.152 19.7928 151.871 16.7134C153.59 13.634 155.917 11.3065 158.854 9.73096C161.808 8.15544 165.102 7.36768 168.736 7.36768C172.371 7.36768 175.656 8.15544 178.592 9.73096C181.528 11.3065 183.856 13.634 185.575 16.7134C187.311 19.7928 188.18 23.5615 188.18 28.0195C188.18 32.4596 187.311 36.2194 185.575 39.2988C183.856 42.3604 181.528 44.6789 178.592 46.2544C175.656 47.8299 172.371 48.6177 168.736 48.6177ZM168.736 39.0034C170.491 39.0034 171.977 38.5737 173.194 37.7144C174.43 36.8371 175.361 35.5838 175.987 33.9546C176.614 32.3075 176.927 30.3291 176.927 28.0195C176.927 25.6921 176.614 23.7048 175.987 22.0576C175.361 20.4105 174.43 19.1572 173.194 18.2979C171.977 17.4206 170.491 16.9819 168.736 16.9819C166.982 16.9819 165.496 17.4206 164.278 18.2979C163.061 19.1572 162.13 20.4105 161.485 22.0576C160.859 23.7048 160.545 25.6921 160.545 28.0195C160.545 30.3291 160.859 32.3075 161.485 33.9546C162.13 35.5838 163.061 36.8371 164.278 37.7144C165.496 38.5737 166.982 39.0034 168.736 39.0034ZM202.601 32.5581V48H191.859V19.2646H202.359L202.386 27.0527H201.231C202.073 24.6357 203.308 22.6395 204.938 21.064C206.567 19.4705 208.805 18.6738 211.651 18.6738C213.764 18.6738 215.545 19.1393 216.996 20.0703C218.446 20.9834 219.547 22.2814 220.299 23.9644C221.051 25.6294 221.427 27.5898 221.427 29.8457V48H210.658V32.209C210.658 30.7767 210.309 29.6667 209.61 28.8789C208.912 28.0911 207.918 27.6973 206.629 27.6973C205.788 27.6973 205.063 27.8763 204.454 28.2344C203.845 28.5924 203.38 29.1385 203.058 29.8726C202.753 30.5887 202.601 31.4839 202.601 32.5581ZM236.976 7.98535V48H226.234V7.98535H236.976ZM243.26 59.0376L243.771 50.981L247.423 51.0615C248.211 51.1331 248.828 51.0884 249.276 50.9272C249.741 50.784 250.09 50.5065 250.323 50.0947C250.574 49.7008 250.753 49.1816 250.86 48.5371L250.914 48L239.984 19.2646H251.183L254.835 31.6719C255.408 33.6234 255.927 35.5838 256.393 37.5532C256.858 39.5226 257.333 41.5368 257.816 43.5957H254.996C255.462 41.5368 255.936 39.5226 256.419 37.5532C256.921 35.5659 257.476 33.6055 258.084 31.6719L261.898 19.2646H272.989L260.931 51.4106C260.269 53.201 259.481 54.6781 258.568 55.8418C257.655 57.0055 256.536 57.8649 255.211 58.4199C253.904 58.9928 252.311 59.2793 250.431 59.2793C249.231 59.2793 248.005 59.2524 246.751 59.1987C245.516 59.1629 244.352 59.1092 243.26 59.0376Z" fill="white"/>
<path d="M168.683 103.618C165.048 103.618 161.763 102.83 158.827 101.254C155.89 99.661 153.563 97.3335 151.844 94.272C150.143 91.1925 149.293 87.4417 149.293 83.0195C149.293 78.5615 150.152 74.7928 151.871 71.7134C153.59 68.634 155.917 66.3065 158.854 64.731C161.79 63.1554 165.066 62.3677 168.683 62.3677C171.225 62.3677 173.561 62.7347 175.692 63.4688C177.84 64.2028 179.72 65.2502 181.332 66.6108C182.961 67.9715 184.277 69.6097 185.279 71.5254C186.282 73.4411 186.917 75.5895 187.186 77.9707H175.987C175.826 77.0397 175.549 76.2072 175.155 75.4731C174.779 74.7212 174.286 74.0946 173.678 73.5933C173.087 73.0741 172.389 72.6802 171.583 72.4116C170.795 72.1252 169.909 71.9819 168.924 71.9819C167.116 71.9819 165.585 72.4206 164.332 73.2979C163.097 74.1572 162.157 75.4105 161.512 77.0576C160.868 78.6868 160.545 80.6742 160.545 83.0195C160.545 85.3649 160.859 87.3612 161.485 89.0083C162.13 90.6375 163.079 91.8818 164.332 92.7412C165.585 93.5827 167.116 94.0034 168.924 94.0034C169.891 94.0034 170.768 93.8691 171.556 93.6006C172.344 93.332 173.042 92.9382 173.651 92.4189C174.26 91.8997 174.761 91.2731 175.155 90.5391C175.549 89.805 175.826 88.9814 175.987 88.0684H187.186C186.935 90.2705 186.327 92.3205 185.36 94.2183C184.411 96.116 183.131 97.7721 181.52 99.1865C179.926 100.583 178.046 101.675 175.88 102.463C173.731 103.233 171.332 103.618 168.683 103.618ZM201.527 87.5581V103H190.785V62.9854H201.473V82.0527H200.157C200.999 79.6357 202.234 77.6395 203.863 76.064C205.493 74.4705 207.73 73.6738 210.577 73.6738C212.69 73.6738 214.471 74.1393 215.921 75.0703C217.372 75.9834 218.473 77.2814 219.225 78.9644C219.977 80.6294 220.353 82.5898 220.353 84.8457V103H209.583V87.209C209.583 85.7767 209.234 84.6667 208.536 83.8789C207.838 83.0911 206.844 82.6973 205.555 82.6973C204.714 82.6973 203.989 82.8763 203.38 83.2344C202.771 83.5924 202.306 84.1385 201.983 84.8726C201.679 85.5887 201.527 86.4839 201.527 87.5581ZM233.78 103.51C231.882 103.51 230.2 103.206 228.731 102.597C227.281 101.971 226.144 101.04 225.321 99.8042C224.497 98.5509 224.085 96.9665 224.085 95.0508C224.085 93.4574 224.363 92.1056 224.918 90.9956C225.473 89.8677 226.243 88.9456 227.228 88.2295C228.23 87.5133 229.394 86.9673 230.719 86.5913C232.044 86.2153 233.476 85.9736 235.016 85.8662C236.681 85.7588 238.014 85.6156 239.017 85.4365C240.038 85.2396 240.772 84.98 241.219 84.6577C241.667 84.3354 241.891 83.9058 241.891 83.3687V83.2612C241.891 82.8315 241.756 82.4556 241.488 82.1333C241.219 81.811 240.843 81.5693 240.36 81.4082C239.876 81.2292 239.304 81.1396 238.641 81.1396C237.943 81.1396 237.334 81.2381 236.815 81.4351C236.296 81.632 235.884 81.9274 235.58 82.3213C235.275 82.6973 235.078 83.1717 234.989 83.7446L225.187 83.5298C225.383 81.4888 226.019 79.7342 227.093 78.2661C228.185 76.798 229.725 75.6701 231.712 74.8823C233.7 74.0767 236.135 73.6738 239.017 73.6738C241.183 73.6738 243.108 73.9066 244.791 74.3721C246.474 74.8197 247.897 75.4821 249.061 76.3594C250.225 77.2188 251.102 78.2661 251.693 79.5015C252.284 80.7368 252.579 82.1333 252.579 83.6909V103H242.186V98.9717H242.052C241.425 100.1 240.7 100.995 239.876 101.657C239.071 102.32 238.158 102.794 237.137 103.081C236.135 103.367 235.016 103.51 233.78 103.51ZM237.271 96.7964C238.059 96.7964 238.811 96.6442 239.527 96.3398C240.261 96.0355 240.852 95.5879 241.3 94.9971C241.765 94.4062 241.998 93.6812 241.998 92.8218V90.5122C241.729 90.6196 241.443 90.7181 241.139 90.8076C240.834 90.8971 240.512 90.9867 240.172 91.0762C239.832 91.1478 239.456 91.2284 239.044 91.3179C238.632 91.3895 238.185 91.4701 237.701 91.5596C236.949 91.6849 236.305 91.8818 235.768 92.1504C235.248 92.401 234.846 92.7233 234.559 93.1172C234.291 93.4932 234.156 93.9229 234.156 94.4062C234.156 94.9076 234.291 95.3372 234.559 95.6953C234.828 96.0534 235.195 96.3309 235.66 96.5278C236.126 96.7069 236.663 96.7964 237.271 96.7964ZM276.534 74.2646V82.375H255.506V74.2646H276.534ZM260.072 66.6646H270.814V92.7949C270.814 93.5827 270.975 94.1377 271.297 94.46C271.638 94.7643 272.273 94.9165 273.204 94.9165C273.652 94.9165 274.234 94.9076 274.95 94.8896C275.666 94.8717 276.158 94.8538 276.427 94.8359L276.695 102.919C276.051 102.991 275.174 103.036 274.063 103.054C272.953 103.09 271.817 103.107 270.653 103.107C267 103.107 264.324 102.409 262.623 101.013C260.922 99.6162 260.072 97.4409 260.072 94.4868V66.6646ZM293.211 103.671C290.418 103.671 287.957 103.269 285.826 102.463C283.696 101.639 281.995 100.485 280.724 98.9985C279.452 97.5125 278.709 95.7759 278.495 93.7886L288.941 93.4663C289.12 94.3794 289.559 95.1134 290.257 95.6685C290.973 96.2235 291.949 96.501 293.185 96.501C294.241 96.501 295.056 96.3398 295.628 96.0176C296.219 95.6774 296.515 95.2298 296.515 94.6748C296.515 94.1735 296.246 93.7707 295.709 93.4663C295.19 93.144 294.384 92.8934 293.292 92.7144L287.975 91.8281C285.092 91.3447 282.899 90.3869 281.395 88.9546C279.891 87.5044 279.139 85.6245 279.139 83.3149C279.139 81.3276 279.676 79.6268 280.75 78.2124C281.825 76.7801 283.373 75.679 285.396 74.9092C287.438 74.1393 289.872 73.7544 292.701 73.7544C295.512 73.7544 297.938 74.1483 299.979 74.936C302.02 75.7238 303.613 76.8428 304.759 78.293C305.905 79.7253 306.532 81.444 306.639 83.4492L296.917 83.7446C296.864 82.8853 296.47 82.196 295.736 81.6768C295.02 81.1396 294.133 80.8711 293.077 80.8711C292.075 80.8711 291.278 81.0412 290.687 81.3813C290.114 81.7215 289.828 82.1691 289.828 82.7241C289.828 83.1717 290.051 83.5656 290.499 83.9058C290.947 84.228 291.618 84.4608 292.513 84.604L298.609 85.6514C301.617 86.1527 303.837 87.0389 305.27 88.3101C306.72 89.5633 307.445 91.2642 307.445 93.4126C307.445 95.4536 306.845 97.244 305.646 98.7837C304.464 100.323 302.799 101.523 300.65 102.382C298.52 103.242 296.04 103.671 293.211 103.671Z" fill="#433ED0"/>
<g filter="url(#filter0_d_94_618)">
<g filter="url(#filter1_d_94_618)">
<path d="M131.093 16V81.7798C131.093 82.5957 131.193 83.4085 131.391 84.2002L134.993 98.6413C135.943 102.451 132.333 105.819 128.598 104.607L119.019 101.499C118.022 101.175 116.981 101.01 115.933 101.01H39.2292C33.7064 101.01 29.2292 96.5332 29.2292 91.0103V16C29.2292 10.4772 33.7064 6 39.2292 6H80.1612H121.093C126.616 6 131.093 10.4771 131.093 16Z" fill="white"/>
</g>
</g>
<g filter="url(#filter2_d_94_618)">
<g filter="url(#filter3_d_94_618)">
<path d="M103.203 35.2293V94.4618C103.203 95.2778 103.303 96.0906 103.501 96.8822L106.586 109.25C107.536 113.06 103.926 116.428 100.191 115.216L92.2842 112.65C91.2872 112.327 90.2455 112.162 89.1973 112.162H20C14.4772 112.162 10 107.685 10 102.162V35.2293C10 29.7065 14.4772 25.2293 20 25.2293H56.6017H93.2035C98.7263 25.2293 103.203 29.7065 103.203 35.2293Z" fill="#433ED0"/>
</g>
</g>
<defs>
<filter id="filter0_d_94_618" x="25.2292" y="6" width="113.918" height="106.858" filterUnits="userSpaceOnUse" color-interpolation-filters="sRGB">
<feFlood flood-opacity="0" result="BackgroundImageFix"/>
<feColorMatrix in="SourceAlpha" type="matrix" values="0 0 0 0 0 0 0 0 0 0 0 0 0 0 0 0 0 0 127 0" result="hardAlpha"/>
<feOffset dy="4"/>
<feGaussianBlur stdDeviation="2"/>
<feComposite in2="hardAlpha" operator="out"/>
<feColorMatrix type="matrix" values="0 0 0 0 0 0 0 0 0 0 0 0 0 0 0 0 0 0 0.03 0"/>
<feBlend mode="normal" in2="BackgroundImageFix" result="effect1_dropShadow_94_618"/>
<feBlend mode="normal" in="SourceGraphic" in2="effect1_dropShadow_94_618" result="shape"/>
</filter>
<filter id="filter1_d_94_618" x="19.2292" y="0" width="125.918" height="118.858" filterUnits="userSpaceOnUse" color-interpolation-filters="sRGB">
<feFlood flood-opacity="0" result="BackgroundImageFix"/>
<feColorMatrix in="SourceAlpha" type="matrix" values="0 0 0 0 0 0 0 0 0 0 0 0 0 0 0 0 0 0 127 0" result="hardAlpha"/>
<feOffset dy="4"/>
<feGaussianBlur stdDeviation="5"/>
<feComposite in2="hardAlpha" operator="out"/>
<feColorMatrix type="matrix" values="0 0 0 0 0 0 0 0 0 0 0 0 0 0 0 0 0 0 0.1 0"/>
<feBlend mode="normal" in2="BackgroundImageFix" result="effect1_dropShadow_94_618"/>
<feBlend mode="normal" in="SourceGraphic" in2="effect1_dropShadow_94_618" result="shape"/>
</filter>
<filter id="filter2_d_94_618" x="6" y="25.2293" width="104.74" height="98.2381" filterUnits="userSpaceOnUse" color-interpolation-filters="sRGB">
<feFlood flood-opacity="0" result="BackgroundImageFix"/>
<feColorMatrix in="SourceAlpha" type="matrix" values="0 0 0 0 0 0 0 0 0 0 0 0 0 0 0 0 0 0 127 0" result="hardAlpha"/>
<feOffset dy="4"/>
<feGaussianBlur stdDeviation="2"/>
<feComposite in2="hardAlpha" operator="out"/>
<feColorMatrix type="matrix" values="0 0 0 0 0 0 0 0 0 0 0 0 0 0 0 0 0 0 0.03 0"/>
<feBlend mode="normal" in2="BackgroundImageFix" result="effect1_dropShadow_94_618"/>
<feBlend mode="normal" in="SourceGraphic" in2="effect1_dropShadow_94_618" result="shape"/>
</filter>
<filter id="filter3_d_94_618" x="0" y="19.2293" width="116.74" height="110.238" filterUnits="userSpaceOnUse" color-interpolation-filters="sRGB">
<feFlood flood-opacity="0" result="BackgroundImageFix"/>
<feColorMatrix in="SourceAlpha" type="matrix" values="0 0 0 0 0 0 0 0 0 0 0 0 0 0 0 0 0 0 127 0" result="hardAlpha"/>
<feOffset dy="4"/>
<feGaussianBlur stdDeviation="5"/>
<feComposite in2="hardAlpha" operator="out"/>
<feColorMatrix type="matrix" values="0 0 0 0 0 0 0 0 0 0 0 0 0 0 0 0 0 0 0.1 0"/>
<feBlend mode="normal" in2="BackgroundImageFix" result="effect1_dropShadow_94_618"/>
<feBlend mode="normal" in="SourceGraphic" in2="effect1_dropShadow_94_618" result="shape"/>
</filter>
</defs>
</svg>
