<svg width="114" height="22" viewBox="0 0 114 22" fill="none" xmlns="http://www.w3.org/2000/svg">
<path d="M8.28223 17.2471C6.82845 17.2471 5.51074 16.932 4.3291 16.3018C3.15462 15.6644 2.22363 14.7334 1.53613 13.5088C0.848633 12.277 0.504883 10.7767 0.504883 9.00781C0.504883 7.22461 0.848633 5.71712 1.53613 4.48535C2.22363 3.25358 3.15462 2.32259 4.3291 1.69238C5.51074 1.06217 6.82845 0.74707 8.28223 0.74707C9.736 0.74707 11.0501 1.06217 12.2246 1.69238C13.3991 2.32259 14.3301 3.25358 15.0176 4.48535C15.7122 5.71712 16.0596 7.22461 16.0596 9.00781C16.0596 10.7839 15.7122 12.2878 15.0176 13.5195C14.3301 14.7441 13.3991 15.6715 12.2246 16.3018C11.0501 16.932 9.736 17.2471 8.28223 17.2471ZM8.28223 13.4014C8.98405 13.4014 9.57845 13.2295 10.0654 12.8857C10.5596 12.5348 10.932 12.0335 11.1826 11.3818C11.4333 10.723 11.5586 9.93164 11.5586 9.00781C11.5586 8.07682 11.4333 7.2819 11.1826 6.62305C10.932 5.96419 10.5596 5.46289 10.0654 5.11914C9.57845 4.76823 8.98405 4.59277 8.28223 4.59277C7.5804 4.59277 6.986 4.76823 6.49902 5.11914C6.01204 5.46289 5.63965 5.96419 5.38184 6.62305C5.13118 7.2819 5.00586 8.07682 5.00586 9.00781C5.00586 9.93164 5.13118 10.723 5.38184 11.3818C5.63965 12.0335 6.01204 12.5348 6.49902 12.8857C6.986 13.2295 7.5804 13.4014 8.28223 13.4014ZM21.8281 10.8232V17H17.5312V5.50586H21.7314L21.7422 8.62109H21.2803C21.6169 7.6543 22.111 6.85579 22.7627 6.22559C23.4144 5.58822 24.3096 5.26953 25.4482 5.26953C26.2933 5.26953 27.0059 5.45573 27.5859 5.82812C28.166 6.19336 28.6064 6.71257 28.9072 7.38574C29.208 8.05176 29.3584 8.83594 29.3584 9.73828V17H25.0508V10.6836C25.0508 10.1107 24.9111 9.66667 24.6318 9.35156C24.3525 9.03646 23.9551 8.87891 23.4395 8.87891C23.1029 8.87891 22.8128 8.95052 22.5693 9.09375C22.3258 9.23698 22.1396 9.4554 22.0107 9.74902C21.889 10.0355 21.8281 10.3936 21.8281 10.8232ZM35.5781 0.994141V17H31.2812V0.994141H35.5781ZM38.0918 21.415L38.2959 18.1924L39.7568 18.2246C40.0719 18.2533 40.319 18.2354 40.498 18.1709C40.6842 18.1136 40.8239 18.0026 40.917 17.8379C41.0173 17.6803 41.0889 17.4727 41.1318 17.2148L41.1533 17L36.7812 5.50586H41.2607L42.7217 10.4688C42.9508 11.2493 43.1585 12.0335 43.3447 12.8213C43.5309 13.609 43.7207 14.4147 43.9141 15.2383H42.7861C42.9723 14.4147 43.1621 13.609 43.3555 12.8213C43.556 12.0264 43.778 11.2422 44.0215 10.4688L45.5469 5.50586H49.9834L45.1602 18.3643C44.8952 19.0804 44.5801 19.6712 44.2148 20.1367C43.8496 20.6022 43.402 20.946 42.8721 21.168C42.3493 21.3971 41.7119 21.5117 40.96 21.5117C40.4801 21.5117 39.9896 21.501 39.4883 21.4795C38.9941 21.4652 38.5286 21.4437 38.0918 21.415Z" fill="white"/>
<path d="M58.2549 17.2471C56.8011 17.2471 55.487 16.932 54.3125 16.3018C53.138 15.6644 52.207 14.7334 51.5195 13.5088C50.8392 12.277 50.499 10.7767 50.499 9.00781C50.499 7.22461 50.8428 5.71712 51.5303 4.48535C52.2178 3.25358 53.1488 2.32259 54.3232 1.69238C55.4977 1.06217 56.8083 0.74707 58.2549 0.74707C59.2718 0.74707 60.2064 0.89388 61.0586 1.1875C61.918 1.48112 62.6699 1.90007 63.3145 2.44434C63.9661 2.98861 64.4925 3.64388 64.8936 4.41016C65.2946 5.17643 65.5488 6.03581 65.6562 6.98828H61.1768C61.1123 6.61589 61.0013 6.28288 60.8438 5.98926C60.6934 5.68848 60.4964 5.43783 60.2529 5.2373C60.0166 5.02962 59.7373 4.87207 59.415 4.76465C59.0999 4.65007 58.7454 4.59277 58.3516 4.59277C57.6283 4.59277 57.016 4.76823 56.5146 5.11914C56.0205 5.46289 55.6445 5.96419 55.3867 6.62305C55.1289 7.27474 55 8.06966 55 9.00781C55 9.94596 55.1253 10.7445 55.376 11.4033C55.6338 12.055 56.0133 12.5527 56.5146 12.8965C57.016 13.2331 57.6283 13.4014 58.3516 13.4014C58.7383 13.4014 59.0892 13.3477 59.4043 13.2402C59.7194 13.1328 59.9987 12.9753 60.2422 12.7676C60.4857 12.5599 60.6862 12.3092 60.8438 12.0156C61.0013 11.722 61.1123 11.3926 61.1768 11.0273H65.6562C65.556 11.9082 65.3125 12.7282 64.9258 13.4873C64.5462 14.2464 64.0342 14.9089 63.3896 15.4746C62.7523 16.0332 62.0003 16.4701 61.1338 16.7852C60.2744 17.0931 59.3148 17.2471 58.2549 17.2471ZM71.3926 10.8232V17H67.0957V0.994141H71.3711V8.62109H70.8447C71.1813 7.6543 71.6755 6.85579 72.3271 6.22559C72.9788 5.58822 73.874 5.26953 75.0127 5.26953C75.8577 5.26953 76.5703 5.45573 77.1504 5.82812C77.7305 6.19336 78.1709 6.71257 78.4717 7.38574C78.7725 8.05176 78.9229 8.83594 78.9229 9.73828V17H74.6152V10.6836C74.6152 10.1107 74.4756 9.66667 74.1963 9.35156C73.917 9.03646 73.5195 8.87891 73.0039 8.87891C72.6673 8.87891 72.3773 8.95052 72.1338 9.09375C71.8903 9.23698 71.7041 9.4554 71.5752 9.74902C71.4535 10.0355 71.3926 10.3936 71.3926 10.8232ZM84.2939 17.2041C83.5348 17.2041 82.8617 17.0824 82.2744 16.8389C81.6943 16.5882 81.2396 16.2158 80.9102 15.7217C80.5807 15.2204 80.416 14.5866 80.416 13.8203C80.416 13.1829 80.527 12.6423 80.749 12.1982C80.971 11.7471 81.279 11.3783 81.6729 11.0918C82.0739 10.8053 82.5394 10.5869 83.0693 10.4365C83.5993 10.2861 84.1722 10.1895 84.7881 10.1465C85.4541 10.1035 85.9876 10.0462 86.3887 9.97461C86.7969 9.89583 87.0905 9.79199 87.2695 9.66309C87.4486 9.53418 87.5381 9.3623 87.5381 9.14746V9.10449C87.5381 8.93262 87.4844 8.78223 87.377 8.65332C87.2695 8.52441 87.1191 8.42773 86.9258 8.36328C86.7324 8.29167 86.5033 8.25586 86.2383 8.25586C85.959 8.25586 85.7155 8.29525 85.5078 8.37402C85.3001 8.4528 85.1354 8.57096 85.0137 8.72852C84.8919 8.87891 84.8132 9.06868 84.7773 9.29785L80.8564 9.21191C80.9352 8.39551 81.1895 7.69368 81.6191 7.10645C82.056 6.51921 82.6719 6.06803 83.4668 5.75293C84.2617 5.43066 85.2357 5.26953 86.3887 5.26953C87.2552 5.26953 88.0251 5.36263 88.6982 5.54883C89.3714 5.72786 89.9408 5.99284 90.4062 6.34375C90.8717 6.6875 91.2227 7.10645 91.459 7.60059C91.6953 8.09473 91.8135 8.65332 91.8135 9.27637V17H87.6562V15.3887H87.6025C87.3519 15.8398 87.0618 16.1979 86.7324 16.4629C86.4102 16.7279 86.0449 16.9176 85.6367 17.0322C85.2357 17.1468 84.7881 17.2041 84.2939 17.2041ZM85.6904 14.5186C86.0055 14.5186 86.3063 14.4577 86.5928 14.3359C86.8864 14.2142 87.1227 14.0352 87.3018 13.7988C87.488 13.5625 87.5811 13.2725 87.5811 12.9287V12.0049C87.4736 12.0479 87.359 12.0872 87.2373 12.123C87.1156 12.1589 86.9867 12.1947 86.8506 12.2305C86.7145 12.2591 86.5641 12.2913 86.3994 12.3271C86.2347 12.3558 86.0557 12.388 85.8623 12.4238C85.5615 12.474 85.3037 12.5527 85.0889 12.6602C84.8812 12.7604 84.7201 12.8893 84.6055 13.0469C84.498 13.1973 84.4443 13.3691 84.4443 13.5625C84.4443 13.763 84.498 13.9349 84.6055 14.0781C84.7129 14.2214 84.8597 14.3324 85.0459 14.4111C85.2321 14.4827 85.4469 14.5186 85.6904 14.5186ZM101.396 5.50586V8.75H92.9844V5.50586H101.396ZM94.8105 2.46582H99.1074V12.918C99.1074 13.2331 99.1719 13.4551 99.3008 13.584C99.4368 13.7057 99.6911 13.7666 100.063 13.7666C100.243 13.7666 100.475 13.763 100.762 13.7559C101.048 13.7487 101.245 13.7415 101.353 13.7344L101.46 16.9678C101.202 16.9964 100.851 17.0143 100.407 17.0215C99.9632 17.0358 99.5085 17.043 99.043 17.043C97.582 17.043 96.5114 16.7637 95.8311 16.2051C95.1507 15.6465 94.8105 14.7764 94.8105 13.5947V2.46582ZM108.066 17.2686C106.949 17.2686 105.965 17.1074 105.112 16.7852C104.26 16.4557 103.58 15.9938 103.071 15.3994C102.563 14.805 102.266 14.1104 102.18 13.3154L106.358 13.1865C106.43 13.5518 106.605 13.8454 106.885 14.0674C107.171 14.2894 107.562 14.4004 108.056 14.4004C108.478 14.4004 108.804 14.3359 109.033 14.207C109.27 14.071 109.388 13.8919 109.388 13.6699C109.388 13.4694 109.28 13.3083 109.065 13.1865C108.858 13.0576 108.535 12.9574 108.099 12.8857L105.972 12.5312C104.819 12.3379 103.941 11.9548 103.34 11.3818C102.738 10.8018 102.438 10.0498 102.438 9.12598C102.438 8.33105 102.652 7.65072 103.082 7.08496C103.512 6.51204 104.131 6.07161 104.94 5.76367C105.757 5.45573 106.731 5.30176 107.862 5.30176C108.987 5.30176 109.957 5.45931 110.773 5.77441C111.59 6.08952 112.227 6.53711 112.686 7.11719C113.144 7.6901 113.395 8.3776 113.438 9.17969L109.549 9.29785C109.527 8.9541 109.37 8.67839 109.076 8.4707C108.79 8.25586 108.435 8.14844 108.013 8.14844C107.612 8.14844 107.293 8.21647 107.057 8.35254C106.827 8.48861 106.713 8.66764 106.713 8.88965C106.713 9.06868 106.802 9.22624 106.981 9.3623C107.16 9.49121 107.429 9.58431 107.787 9.6416L110.226 10.0605C111.429 10.2611 112.317 10.6156 112.89 11.124C113.47 11.6253 113.76 12.3057 113.76 13.165C113.76 13.9814 113.52 14.6976 113.04 15.3135C112.567 15.9294 111.901 16.4092 111.042 16.7529C110.19 17.0967 109.198 17.2686 108.066 17.2686Z" fill="#433ED0"/>
</svg>
