<svg width="28" height="28" viewBox="0 0 28 28" fill="none" xmlns="http://www.w3.org/2000/svg">
<circle cx="13.5294" cy="14.4535" r="13.4915" transform="rotate(-0.161226 13.5294 14.4535)" fill="#444444"/>
<path d="M13.5354 16.753C16.6788 16.7441 19.3335 17.2476 19.3393 19.2181C19.3448 21.1896 16.6755 21.6904 13.5494 21.6992C10.407 21.708 7.75247 21.2044 7.7465 19.2341C7.74095 17.2627 10.4095 16.7618 13.5354 16.753ZM13.5086 7.20808C15.6381 7.20209 17.3493 8.90326 17.3553 11.0313C17.3611 13.1591 15.6595 14.87 13.5302 14.876C11.4017 14.8818 9.69062 13.1805 9.68443 11.0528C9.67844 8.92499 11.38 7.21431 13.5086 7.20808Z" fill="white"/>
</svg>
