<svg width="27" height="27" viewBox="0 0 27 27" fill="none" xmlns="http://www.w3.org/2000/svg">
<path d="M10.6875 3.375C12.6269 3.375 14.4869 4.14542 15.8582 5.51678C17.2296 6.88814 18 8.74811 18 10.6875C18 12.4988 17.3363 14.1638 16.245 15.4463L16.5488 15.75H17.4375L23.0625 21.375L21.375 23.0625L15.75 17.4375V16.5488L15.4463 16.245C14.1638 17.3363 12.4988 18 10.6875 18C8.74811 18 6.88814 17.2296 5.51678 15.8582C4.14542 14.4869 3.375 12.6269 3.375 10.6875C3.375 8.74811 4.14542 6.88814 5.51678 5.51678C6.88814 4.14542 8.74811 3.375 10.6875 3.375ZM10.6875 5.625C7.875 5.625 5.625 7.875 5.625 10.6875C5.625 13.5 7.875 15.75 10.6875 15.75C13.5 15.75 15.75 13.5 15.75 10.6875C15.75 7.875 13.5 5.625 10.6875 5.625Z" fill="white"/>
</svg>
